<svg width="270" height="296" viewBox="0 0 270 296" fill="none" xmlns="http://www.w3.org/2000/svg">
<path d="M135 0L270 73.9V221.7L135 295.6L0 221.7V73.9L135 0Z" fill="#673AB8"/>
<path d="M36.7717 220.478C54.7182 242.258 111.755 225.663 165.602 185.774C219.449 145.886 250.23 97.429 232.283 75.648C214.336 53.868 157.3 70.464 103.453 110.352C49.6062 150.242 18.8251 198.698 36.7717 220.478ZM44.4393 214.798C38.4866 207.576 41.0875 193.396 52.4264 175.545C64.3676 156.748 84.6376 135.997 109.443 117.622C134.249 99.247 160.387 85.618 182.513 79.18C203.524 73.067 218.664 74.105 224.616 81.328C230.568 88.551 227.967 102.731 216.629 120.582C204.687 139.379 184.417 160.129 159.612 178.505C134.806 196.88 108.667 210.509 86.5424 216.946C65.5309 223.06 50.3909 222.022 44.4393 214.799V214.798Z" fill="white"/>
<path d="M232.284 220.478C250.231 198.698 219.449 150.241 165.602 110.352C111.755 70.464 54.7172 53.868 36.7717 75.648C18.824 97.428 49.6062 145.886 103.453 185.774C157.3 225.663 214.336 242.259 232.284 220.478ZM224.616 214.798C218.664 222.022 203.524 223.06 182.513 216.946C160.388 210.509 134.249 196.88 109.444 178.505C84.6377 160.129 64.3666 139.379 52.4275 120.582C41.0875 102.731 38.4866 88.552 44.4382 81.328C50.3909 74.105 65.5309 73.067 86.5414 79.18C108.667 85.618 134.806 99.247 159.611 117.622C184.418 135.997 204.688 156.748 216.628 175.545C227.968 193.395 230.569 207.575 224.616 214.799V214.798Z" fill="white"/>
<path d="M134.528 167.667C145.947 167.667 155.203 158.89 155.203 148.063C155.203 137.237 145.947 128.46 134.528 128.46C123.108 128.46 113.851 137.237 113.851 148.063C113.851 158.89 123.108 167.667 134.528 167.667V167.667Z" fill="white"/>
</svg>
