<svg width="50" height="50" viewBox="0 0 50 50" fill="none" xmlns="http://www.w3.org/2000/svg">
<path fill-rule="evenodd" clip-rule="evenodd" d="M24 0C10.74 0 0 11.4705 0 25.6323C0 36.9747 6.87 46.5547 16.41 49.951C17.61 50.1753 18.06 49.4063 18.06 48.7335C18.06 48.1247 18.03 46.1062 18.03 43.9595C12 45.145 10.44 42.3895 9.96 40.9477C9.69 40.2107 8.52 37.9359 7.5 37.3271C6.66 36.8465 5.46 35.661 7.47 35.629C9.36 35.5969 10.71 37.4873 11.16 38.2563C13.32 42.1332 16.77 41.0438 18.15 40.3709C18.36 38.7048 18.99 37.5834 19.68 36.9426C14.34 36.3018 8.76 34.091 8.76 24.2866C8.76 21.4991 9.69 19.1922 11.22 17.398C10.98 16.7571 10.14 14.1298 11.46 10.6054C11.46 10.6054 13.47 9.93253 18.06 13.2327C19.98 12.656 22.02 12.3676 24.06 12.3676C26.1 12.3676 28.14 12.656 30.06 13.2327C34.65 9.90049 36.66 10.6054 36.66 10.6054C37.98 14.1298 37.14 16.7571 36.9 17.398C38.43 19.1922 39.36 21.4671 39.36 24.2866C39.36 34.1231 33.75 36.3018 28.41 36.9426C29.28 37.7436 30.03 39.2816 30.03 41.6846C30.03 45.1129 30 47.8684 30 48.7335C30 49.4063 30.45 50.2074 31.65 49.951C36.4144 48.2331 40.5544 44.9627 43.4873 40.6003C46.4203 36.2378 47.9986 31.0029 48 25.6323C48 11.4705 37.26 0 24 0Z" fill="black"/>
</svg>
