<svg width="28" height="27" viewBox="0 0 28 27" fill="none" xmlns="http://www.w3.org/2000/svg">
<path fill-rule="evenodd" clip-rule="evenodd" d="M13.7169 0C6.13833 0 0 6.03019 0 13.4753C0 19.4381 3.92648 24.4745 9.37896 26.26C10.0648 26.3779 10.322 25.9736 10.322 25.6199C10.322 25.2999 10.3049 24.2387 10.3049 23.1101C6.85848 23.7334 5.96687 22.2848 5.69253 21.5268C5.53822 21.1394 4.86952 19.9434 4.28655 19.6234C3.80645 19.3707 3.12061 18.7475 4.2694 18.7307C5.34961 18.7138 6.12119 19.7076 6.37838 20.1119C7.61291 22.15 9.58472 21.5773 10.3734 21.2236C10.4935 20.3477 10.8535 19.7581 11.2479 19.4213C8.19588 19.0844 5.00669 17.9221 5.00669 12.7678C5.00669 11.3024 5.53822 10.0896 6.41267 9.14635C6.2755 8.80947 5.79541 7.42825 6.54984 5.5754C6.54984 5.5754 7.69864 5.22168 10.322 6.95662C11.4194 6.65343 12.5853 6.50183 13.7512 6.50183C14.9172 6.50183 16.0831 6.65343 17.1805 6.95662C19.8038 5.20483 20.9526 5.5754 20.9526 5.5754C21.7071 7.42825 21.227 8.80947 21.0898 9.14635C21.9643 10.0896 22.4958 11.2856 22.4958 12.7678C22.4958 17.939 19.2895 19.0844 16.2374 19.4213C16.7347 19.8424 17.1633 20.6509 17.1633 21.9142C17.1633 23.7165 17.1462 25.1651 17.1462 25.6199C17.1462 25.9736 17.4034 26.3947 18.0892 26.26C20.8122 25.3568 23.1784 23.6375 24.8547 21.3441C26.531 19.0507 27.4331 16.2987 27.4339 13.4753C27.4339 6.03019 21.2956 0 13.7169 0Z" fill="black"/>
</svg>
