<svg width="27" height="26" viewBox="0 0 27 26" fill="none" xmlns="http://www.w3.org/2000/svg">
<path d="M13.5 0C6.0441 0 0 5.82024 0 13C0 20.1798 6.0441 26 13.5 26C20.9559 26 27 20.1798 27 13C27 5.82024 20.9559 0 13.5 0Z" fill="#40B3E0"/>
<path d="M20.0689 7.47805L17.6576 19.1851C17.6576 19.1851 17.3204 19.9969 16.393 19.6073L10.8287 15.4993L8.8054 14.5576L5.39939 13.4534C5.39939 13.4534 4.87669 13.2748 4.82606 12.8851C4.77544 12.4954 5.41626 12.2844 5.41626 12.2844L18.9559 7.1697C18.9559 7.1697 20.0688 6.69886 20.0688 7.47825" fill="white"/>
<path d="M10.4011 19.0534C10.4011 19.0534 10.2387 19.0388 10.0362 18.4217C9.834 17.8047 8.80536 14.5574 8.80536 14.5574L16.9832 9.55642C16.9832 9.55642 17.4554 9.28038 17.4385 9.55642C17.4385 9.55642 17.5228 9.60517 17.2698 9.83247C17.0169 10.0599 10.8457 15.4017 10.8457 15.4017" fill="#D2E5F1"/>
<path d="M12.9622 17.0742L10.7614 19.0065C10.7614 19.0065 10.5893 19.1322 10.4011 19.0534L10.8226 15.4642" fill="#B5CFE4"/>
</svg>
