<svg width="29" height="18" viewBox="0 0 29 18" fill="none" xmlns="http://www.w3.org/2000/svg">
<path d="M19.919 9.03796L27.3518 2.98244V15.0244L19.919 9.03796ZM10.3413 10.0635L12.9515 12.1881C13.3611 12.5144 13.8952 12.7116 14.4789 12.7116H14.4994H14.4982H14.5151C15.1 12.7116 15.6341 12.5133 16.0485 12.1847L16.0449 12.187L18.655 10.0623L26.5893 16.4521H2.41073L10.3413 10.0635ZM2.39985 1.54674H26.6038L14.9779 11.0153C14.8472 11.1123 14.6854 11.165 14.5187 11.1649H14.5018H14.503H14.4861C14.3189 11.1651 14.1565 11.1119 14.0257 11.0142L14.0269 11.0153L2.39985 1.54674ZM1.64944 2.9813L9.081 9.03683L1.64944 15.0198V2.9813ZM27.7505 0.215298C27.4605 0.0793202 27.1198 0 26.7584 0H2.24639C1.89615 7.84532e-05 1.55073 0.0764993 1.23738 0.223229L1.25068 0.217564C0.875563 0.391061 0.55966 0.659466 0.338655 0.992459C0.117649 1.32545 0.000347227 1.70977 0 2.10198L0 15.8946C0.000639723 16.4528 0.23739 16.988 0.658304 17.3827C1.07922 17.7774 1.64992 17.9994 2.24518 18H26.7548C27.3501 17.9994 27.9208 17.7774 28.3417 17.3827C28.7626 16.988 28.9994 16.4528 29 15.8946V2.10652V2.10198C29 1.27819 28.4937 0.564306 27.7566 0.220963L27.7433 0.215298H27.7505Z" fill="black"/>
</svg>
