<svg width="26" height="19" viewBox="0 0 26 19" fill="none" xmlns="http://www.w3.org/2000/svg">
<path d="M5.899 1.56846C5.80371 1.47879 5.68342 1.40498 5.54614 1.35193C5.40886 1.29888 5.25771 1.2678 5.10275 1.26076C4.94779 1.25373 4.79255 1.27089 4.64735 1.31112C4.50215 1.35134 4.37032 1.4137 4.2606 1.49406L2.59153 2.7162C1.81188 3.28771 1.52455 4.09656 1.86515 4.80622C3.27875 7.74357 5.57825 10.4104 8.59307 12.609C11.5986 14.8143 15.2442 16.4964 19.2596 17.5306C20.2297 17.7797 21.3355 17.5695 22.1167 16.9992L23.7858 15.7782C23.8956 15.698 23.9809 15.6015 24.0359 15.4953C24.0909 15.3891 24.1143 15.2756 24.1047 15.1622C24.0951 15.0488 24.0526 14.9383 23.9801 14.8379C23.9076 14.7374 23.8067 14.6494 23.6841 14.5797L19.9602 12.4614C19.8292 12.3871 19.6769 12.3355 19.5147 12.3105C19.3525 12.2856 19.1847 12.2879 19.0239 12.3173L15.4889 12.9632C15.017 13.0495 14.5227 13.0449 14.0539 12.9499C13.5852 12.8549 13.1581 12.6728 12.8142 12.4212L8.84973 9.51999C8.50553 9.26852 8.25623 8.95613 8.12611 8.61325C7.99599 8.27036 7.98947 7.90867 8.1072 7.5634L8.99178 4.97744C9.03198 4.85982 9.03515 4.73707 9.00103 4.61843C8.96692 4.49979 8.89642 4.38837 8.79485 4.29257L5.899 1.56846ZM3.04189 0.603739C3.32436 0.397039 3.66372 0.236663 4.03742 0.133261C4.41112 0.0298591 4.81062 -0.014203 5.20939 0.0040006C5.60815 0.0222042 5.99706 0.102257 6.35029 0.238843C6.70352 0.375429 7.01299 0.565424 7.25814 0.79621L10.154 3.51914C10.6851 4.01862 10.8723 4.66925 10.6625 5.28326L9.7795 7.86922C9.73385 8.00316 9.73631 8.14346 9.78666 8.27649C9.837 8.40953 9.93352 8.53078 10.0668 8.62848L14.0329 11.5297C14.1666 11.6274 14.3326 11.6981 14.5148 11.735C14.697 11.7718 14.8891 11.7735 15.0724 11.7399L18.6059 11.094C19.0201 11.0182 19.4524 11.0124 19.8702 11.0768C20.288 11.1412 20.6803 11.2743 21.0175 11.466L24.7398 13.5843C26.0779 14.3459 26.2006 15.7924 25.0029 16.6674L23.3338 17.8883C22.1393 18.7621 20.354 19.1459 18.6898 18.7173C14.4303 17.6209 10.5628 15.8371 7.37436 13.4981C4.17713 11.166 1.73861 8.33736 0.23966 5.22186C-0.344676 4.00563 0.179935 2.69848 1.37443 1.82469L3.0435 0.603739H3.04189Z" fill="black"/>
</svg>
